<?xml version="1.0" encoding="UTF-8"?>
<svg id="Layer_1" xmlns="http://www.w3.org/2000/svg" version="1.1" viewBox="0 0 214 214">
  <!-- Generator: Adobe Illustrator 30.1.0, SVG Export Plug-In . SVG Version: 2.1.1 Build 136)  -->
  <defs>
    <style>
      .st0 {
        fill: #4dabf7;
        stroke: #231f20;
        stroke-miterlimit: 10;
      }
    </style>
  </defs>
  <path class="st0" d="M40.59,116.48v56.93h56.92v-56.93h-56.92ZM78.54,154.44h-18.98v-18.98h18.98v18.98Z"/>
  <polygon class="st0" points="211.36 2.64 211.36 40.58 192.39 40.58 192.39 21.61 21.61 21.61 21.61 192.39 192.39 192.39 192.39 173.41 211.36 173.41 211.36 211.36 2.64 211.36 2.64 2.64 211.36 2.64"/>
  <path class="st0" d="M116.48,40.58v56.93h56.93v-56.93h-56.93ZM154.44,78.53h-18.98v-18.98h18.98v18.98Z"/>
  <polygon class="st0" points="97.51 40.58 97.51 59.56 78.54 59.56 78.54 97.51 59.56 97.51 59.56 59.56 40.59 59.56 40.59 40.58 97.51 40.58"/>
  <polygon class="st0" points="173.41 116.48 173.41 173.41 154.44 173.41 154.44 135.46 135.46 135.46 135.46 173.41 116.48 173.41 116.48 116.48 173.41 116.48"/>
</svg>
