<?xml version="1.0" encoding="UTF-8"?>
<svg id="Layer_1" xmlns="http://www.w3.org/2000/svg" version="1.1" viewBox="0 0 621.51 81">
  <!-- Generator: Adobe Illustrator 30.1.0, SVG Export Plug-In . SVG Version: 2.1.1 Build 136)  -->
  <defs>
    <style>
      .st0 {
        fill: #4dabf7;
      }
    </style>
  </defs>
  <g>
    <polygon class="st0" points="58.91 44.18 58.91 51.55 51.55 51.55 51.55 66.27 44.18 66.27 44.18 44.18 58.91 44.18"/>
    <polygon class="st0" points="81 0 81 14.73 73.64 14.73 73.64 7.36 7.36 7.36 7.36 73.64 73.64 73.64 73.64 66.27 81 66.27 81 81 0 81 0 0 81 0"/>
    <polygon class="st0" points="36.82 14.73 36.82 22.09 29.45 22.09 29.45 36.82 22.09 36.82 22.09 22.09 14.73 22.09 14.73 14.73 36.82 14.73"/>
    <path class="st0" d="M44.18,14.73v22.09h22.09V14.73h-22.09ZM58.91,29.45h-7.36v-7.36h7.36v7.36Z"/>
    <path class="st0" d="M14.73,44.18v22.09h22.09v-22.09H14.73ZM29.45,58.91h-7.36v-7.36h7.36v7.36Z"/>
    <rect class="st0" x="58.91" y="51.55" width="7.36" height="14.73"/>
  </g>
  <g>
    <polygon class="st0" points="135.51 27 135.51 54 189.51 54 189.51 81 108.51 81 108.51 0 189.51 0 189.51 27 135.51 27"/>
    <polygon class="st0" points="297.51 0 297.51 27 270.51 27 270.51 81 243.51 81 243.51 27 216.51 27 216.51 0 297.51 0"/>
    <rect class="st0" x="594.51" y="27" width="27" height="54"/>
    <path class="st0" d="M324.51,0v81h81V0h-81ZM378.51,54h-27v-27h27v27Z"/>
    <path class="st0" d="M432.51,0v81h81V0h-81ZM486.51,54h-27v-27h27v27Z"/>
    <polygon class="st0" points="594.51 0 594.51 27 567.51 27 567.51 81 540.51 81 540.51 0 594.51 0"/>
  </g>
</svg>
