<?xml version="1.0" encoding="UTF-8"?>
<svg id="Layer_1" xmlns="http://www.w3.org/2000/svg" version="1.1" viewBox="0 0 1559.83 217.05">
  <!-- Generator: Adobe Illustrator 30.1.0, SVG Export Plug-In . SVG Version: 2.1.1 Build 136)  -->
  <defs>
    <style>
      .st0 {
        fill: #ec008c;
        stroke: #231f20;
        stroke-miterlimit: 10;
      }
    </style>
  </defs>
  <g>
    <path class="st0" d="M43.22,118.01v56.93h56.92v-56.93h-56.92ZM81.17,155.96h-18.98v-18.98h18.98v18.98Z"/>
    <polygon class="st0" points="214 4.16 214 42.11 195.02 42.11 195.02 23.14 24.25 23.14 24.25 193.91 195.02 193.91 195.02 174.94 214 174.94 214 212.89 5.27 212.89 5.27 4.16 214 4.16"/>
    <path class="st0" d="M119.12,42.11v56.93h56.93v-56.93h-56.93ZM157.07,80.06h-18.98v-18.98h18.98v18.98Z"/>
    <polygon class="st0" points="100.14 42.11 100.14 61.08 81.17 61.08 81.17 99.03 62.2 99.03 62.2 61.08 43.22 61.08 43.22 42.11 100.14 42.11"/>
    <polygon class="st0" points="176.04 118.01 176.04 174.94 157.07 174.94 157.07 136.99 138.09 136.99 138.09 174.94 119.12 174.94 119.12 118.01 176.04 118.01"/>
  </g>
  <g>
    <path class="st0" d="M817.32,4.33l-.68,207.68,201.06.7.68-207.68-201.06-.7ZM950.91,143.26l-67.02-.23.23-69.23,67.02.23-.23,69.23Z"/>
    <path class="st0" d="M1219.45,4.79l-134.04-.47-.68,207.68,134.04.47,67.02.26.68-207.68-67.02-.26ZM1218.99,143.24l-67.02-.23.23-69.23,67.02.23-.23,69.23Z"/>
    <polygon class="st0" points="1554.56 5.04 1553.87 212.72 1486.85 212.48 1487.31 74.03 1420.29 73.79 1419.83 212.25 1352.81 212.01 1353.49 4.33 1554.56 5.04"/>
    <polygon class="st0" points="750.3 5.18 750.07 74.41 683.05 74.15 682.59 212.6 615.57 212.36 616.03 73.91 549 73.68 549.23 4.45 683.28 4.92 750.3 5.18"/>
    <polygon class="st0" points="281.15 4.33 482.21 5.04 481.98 74.26 347.94 73.79 347.71 143.02 481.76 143.49 481.53 212.72 280.46 212.01 281.15 4.33"/>
  </g>
</svg>