<?xml version="1.0" encoding="UTF-8"?>
<svg id="Layer_1" xmlns="http://www.w3.org/2000/svg" version="1.1" viewBox="0 0 214 214">
  <!-- Generator: Adobe Illustrator 30.1.0, SVG Export Plug-In . SVG Version: 2.1.1 Build 136)  -->
  <defs>
    <style>
      .st0 {
        fill: #4dabf7;
      }
    </style>
  </defs>
  <polygon class="st0" points="155.52 116.7 155.52 136.11 136.11 136.11 136.11 174.93 116.7 174.93 116.7 116.7 155.52 116.7"/>
  <polygon class="st0" points="213.75 .25 213.75 39.07 194.34 39.07 194.34 19.66 19.66 19.66 19.66 194.34 194.34 194.34 194.34 174.93 213.75 174.93 213.75 213.75 .25 213.75 .25 .25 213.75 .25"/>
  <polygon class="st0" points="97.3 39.07 97.3 58.48 77.89 58.48 77.89 97.3 58.48 97.3 58.48 58.48 39.07 58.48 39.07 39.07 97.3 39.07"/>
  <path class="st0" d="M116.7,39.07v58.23h58.23v-58.23h-58.23ZM155.52,77.89h-19.41v-19.41h19.41v19.41Z"/>
  <path class="st0" d="M39.07,116.7v58.23h58.23v-58.23h-58.23ZM77.89,155.52h-19.41v-19.41h19.41v19.41Z"/>
  <rect class="st0" x="155.52" y="136.11" width="19.41" height="38.82"/>
</svg>