<?xml version="1.0" encoding="UTF-8"?>
<svg id="Layer_1" xmlns="http://www.w3.org/2000/svg" version="1.1" viewBox="0 0 1176.51 749.24">
  <defs>
    <linearGradient id="purpleGrad" x1="0%" y1="0%" x2="100%" y2="100%">
      <stop offset="0%" style="stop-color:#c026d3"/>
      <stop offset="50%" style="stop-color:#7c3aed"/>
      <stop offset="100%" style="stop-color:#6366f1"/>
    </linearGradient>
    <style>
      .st0 { fill: #7c3aed; }
      .st1 { fill: #e879f9; }
      .st2 { fill: #2e1065; }
      .st3 { fill: #c026d3; }
      .st4 { fill: #c4b5fd; }
    </style>
  </defs>
  <path class="st0" d="M672.21,144.34c-.17.63-2.21,2.17-3.37,2.17l-147.73.18c-2.02-2.76-4.69-5.75-7.95-8.3-23.31-18.27-46.28-35.93-70.94-52.89-37.26-25.63-106.61-51.16-152.82-52.08l-49.07-.98c8.19-5.82,17.46-6.99,26.42-9.56,11.97-3.45,64.38-11.76,83.76-11.7,20.68.06,40.14.72,60.52,3.14,15.87,1.88,31.02,3.57,46.46,7.79,44.16,12.08,62.31,16.73,101.8,39.27,15.74,8.99,30.54,17.53,45.14,28.06,21.42,15.45,41.19,31.61,61.2,48.42,2.67,2.25,5.05,4.11,6.58,6.49Z"/>
  <path class="st0" d="M673.07,593.81c.42,2.26-.77,5.3-2.78,7.17l-20.26,18.8c-41.59,38.6-81.53,66.92-133.85,89.8-19.03,8.33-38.32,14.76-58.64,19.2-48.85,10.69-83.77,12.44-133.05,3.79-9.88-1.73-19.09-3.02-28.77-5.41-16.08-3.96-31.31-9.11-46.44-14.38l49.09,2.53c48,2.48,113.17-26.49,153.81-52.73,21.01-13.56,40.96-27.57,59.15-44.53l10.89-10.15,10.34-9.81c1.12-1.07,2.42-3.21,3.09-4.49,2.88.66,6.06,1.31,9.61,1.31l118.63-.2,9.18-.91Z"/>
  <path class="st4" d="M688.03,151.39c-5.14,1.74-10.75.72-16.77,1.47-2.53,1.85-4.9,6.72-5.47,9.59-5.12,4.05-9.35,9.78-13.21,15.53l-10.08,15.05-55.33,80.23c-4.51,6.54-9.12,12.18-12.02,19-6.18.13-12.4-.2-18.92-.86l-18.99-1.93-25.03-1.7-30.52-2.06c-15.07-1.02-29.74-1.89-44.22-4.7l48.48-70.8,33.29-47.8c3.7-5.32,7.2-10.25,9.74-15.72l140.03-.18c1.1,0,3.03-1.61,3.19-2.27,1.42,1.01,2.71,3.31,4.11,5.44,2.98,1.54,8.17,1.83,11.7,1.72Z"/>
  <path class="st4" d="M612.68,500.94c7.71,12.88,17.1,25.84,25.72,38.68l18.9,28.16,14.7,21.42c.64.93.87,3.52,1.07,4.6l-9.18.91-118.63.2c-3.56,0-6.73-.65-9.61-1.31l-43.29-63.65-10.02-15.36c-.8-1.23-1.61-3.49-1.96-4.75,8.35.18,16.98.3,25.78-.28l13.07-.86,18.87-1.27c6.77-.46,13.01-2,20.14-1.55,1.74.11,4.46-.79,5.86-.86l23.44-1.79,25.14-2.3Z"/>
  <path class="st4" d="M701.14,152.42c-2.77-.03-6.02.08-8.11-1.03,2.8,0,5.85.08,8.11,1.03Z"/>
  <path class="st2" d="M614.97,500.07l1.2-.05-1.2.05Z"/>
  <path class="st0" d="M370.35,200.41l-22.12,17.93c-1.62,1.31-3.21,3.13-5.14,5.04l3.27,1.97-27.15,12.09-66.06,29.46c-1.53.68-3.36,2.9-3.64,4.02-.66.11-1.75,1.01-2.28,1.47-7.8.51-13.07,7.69-11.68,15.9.59,3.49-.37,7.5-.77,11.01l-1.01,8.97-1.08,11.03-.24,9.76c-.09,3.77-1.27,7.13-.79,10.79,14.11,5.04,30.59-1.96,37.63,7.51l-.1,36.79-2.66,21.82c-.64,5.27,1.25,27.16-1.02,45.11l-.88,6.97-.13,37.96c0,.86.55,2.79,1.13,3.3,3.02,2.65,34.23-2.91,40.92-4.2,1.59-.31,4.04-.24,5.44-.16.88,2.68,2.48,5.27,4.43,7.95,9.13,12.54,18.18,24.66,29.78,35.04,6.02,5.38,12.63,9.54,17.92,14.99-6.77,7.23-31.81,17.07-40.86,17.65-23,1.47-37.49.13-57.34-12.36-24.27-15.27-41.88-36.94-54.4-62.47-10.99-22.41-18.52-45.32-24.24-69.72-5.52-23.53-7.87-46.63-7.07-70.88.39-11.93-.65-23.87,2.93-35.43,9.05-29.29,20.96-57.09,35.38-84.07,14.18-26.54,35.92-46.57,62.84-59.39,4.71-2.24,9.71-4.71,14.94-4.82,8.2-.18,15.82-.26,23.95.18,16.7.91,38.62,18.04,50.1,28.77Z"/>
  <path class="st1" d="M417.12,252.28c2.72,3.52,4.77,7.83,7.29,11.98l10.81,17.84,2.26-1.1c14.48,2.81,29.15,3.68,44.22,4.7l30.52,2.06,25.03,1.7c2.46,11.35,5.22,22.72,6.88,34.73,4.36,31.47-4.89,69.14-18.56,97.22-11.24,23.08-27.72,42.6-48.69,57.06-14.13,9.74-28.97,15.68-45.25,21.05-26.02,2.7-47.96-1.87-66.29-21.54-10.75-11.54-18.58-24.59-21.88-40.14-5.55-19.4-6.69-38.49-4.38-58.82,2.99-36.52,17.56-70.83,41.42-98.43,6.19-7.16,27.49-28.23,36.63-28.31ZM409.67,410.92c12.26,5.34,27.48,4.46,37.99-3.47,23.73-17.91,30.25-50.06,18.05-76.49-5.05-10.94-15.25-14.86-26.48-15.06-11.96-.21-22.24,2.69-30.22,12.3-5.49,6.61-10.62,14.68-13.21,23.33-5.16,17.26-7,50.29,13.87,59.38Z"/>
  <path class="st1" d="M814.59,469.75l-31.29-4.31c-.32-11.04-1.01-23.1,3.35-33.55,2.32-5.57,8.56-8.43,12.35-12.77,22.18-25.43,34.69-56.26,40.6-89.22,2.99-16.68,3.18-31.69-.07-48.32-4.21-21.59-11.4-41.45-24.99-59.06-3.06-3.97-5.28-9.05-5.05-14.08l.8-17.66,13.63-1.1,23.94-.98c18.63-.76,36.38-.55,54.94-2.27,4.12-.38,8.63.14,12.61,1.44l70.92,94.69c6.14,8.2,11.47,14.96,18.69,23.45,1.67-4.79,1.8-8.26,2.04-12.86l2.23-43.57,3.04-49.41.81-19.67,18.66-1.27c19.29,1.27,37.62-1.43,56.89-1.48l67.4-.17-3,61.77-.79,26.5-1.2,22.65-.9,36.08-.95,53.56-2.02,41.63-1.31,20.27-.5,60.94c-.06,7.04-.89,13.6-1.63,21.03l-39.86-6.34-67.25-11.4c-14.21-2.41-27.83-3.89-41.61-7.18-9.22-16.39-18.96-30.72-29.35-46.1l-59.5-88.1c-1.59-2.35-5.35-3.09-7.91-2.11l-.81,30.1-6.37,89.3-19.98-2.48-56.53-7.95Z"/>
  <path class="st1" d="M575.15,292.25c2.9-6.82,7.51-12.45,12.02-19l55.33-80.23,10.08-15.05c3.86-5.76,8.09-11.48,13.21-15.53,10.29,2.53,31.85.71,42.86,2.65,20.2,3.55,39.58,12.24,56.07,24.29,14.11,10.32,23.2,25.11,30.95,40.27,7.48,14.62,11.06,29.68,11.88,46.02.55,11.13.69,22.11.02,33.27-2.27,37.75-21.29,77.42-48,103.67-26.3,25.85-65.49,41.83-102.47,42.1-25.03.19-70.2-11.8-86.01-32.4,13.56-49.69,20.19-80.33,4.05-130.07ZM676.17,350.4c17.26-13.18,25.46-32.75,25.29-54.15-.16-20.97-12.65-38.65-33.1-44.46-5.08-1.44-10.66-3.67-16.33-3.35-10.55.59-21.23,3.59-29.45,10.54-27.23,23.01-31.93,69.12-8.08,88.66,14.95,12.25,44.13,16.16,61.68,2.76Z"/>
  <path class="st1" d="M247.23,272.4c.53-.46,1.62-1.36,2.28-1.47,1.27-.22,4.85-.92,6.05-1.45l71.52-31.54,40.88-18.16,11.41-5.04c3,13.85,2.17,26.13,1.36,39.58-.72,11.89-7.39,15.45-16.3,27.12-9.07,11.88-23.42,11.52-37.79,19.39l-.37,52.33-1.7,33.95c-1.02,20.43.04,40.19-1.59,60.45-1.19,14.8.66,23.72-2.05,35.75l-45.48,7.68,1.17-36.72,1.56-30.25,2.24-43.91c1.05-20.65,2.39-40.08,1.71-61.49-14.8,4.29-27.51,9.89-41.79,15.74l3.91-46.18c.47-5.52,1.82-10.87,2.98-15.79Z"/>
  <path class="st3" d="M409.67,410.92c-20.87-9.1-19.03-42.12-13.87-59.38,2.59-8.65,7.72-16.72,13.21-23.33,7.97-9.61,18.26-12.51,30.22-12.3,11.23.2,21.43,4.12,26.48,15.06,12.21,26.43,5.69,58.58-18.05,76.49-10.51,7.93-25.73,8.81-37.99,3.47Z"/>
  <path class="st3" d="M676.17,350.4c-17.55,13.4-46.73,9.49-61.68-2.76-23.84-19.54-19.15-65.66,8.08-88.66,8.22-6.95,18.91-9.95,29.45-10.54,5.68-.32,11.26,1.91,16.33,3.35,20.44,5.81,32.94,23.49,33.1,44.46.17,21.4-8.03,40.97-25.29,54.15Z"/>
  <path class="st3" d="M1142.66,164.56c-3.44,0-6.72.5-10.15.56l-37.75.59-17.03.79c-5.8.27-11.26.32-16.98.73l-13.99,1-15.96.93c-9.17.53-17.82,1.13-26.86,3.53l-.42,48.68-.64,18.93-.67,17.9c-.37,9.78-.58,18.44-1.91,28.7-6.2-4.8-9.52-9.2-13.62-14.76l-57.55-78.09c-4.72-6.4-8.42-13.45-15.59-17.31-5.68-.73-12.76-.54-18.56-.14l-17.11,1.19-13.06.89-19.99,1.04-17.98.98-20.07,1.09c-1.85.1-3.5,4.48-3.81,6.41l-2.48,15.65c-17.53-8.99-29.77-24.98-45.34-33.55-13.44-7.41-39.54-17.74-54.02-17.9-2.77-.03-6.02.08-8.11-1.03h-5c-5.14,1.74-10.75.72-16.77,1.47-2.53,1.85-4.9,6.72-5.47,9.59,10.29,2.53,31.85.71,42.86,2.65,20.2,3.55,39.58,12.24,56.07,24.29,14.11,10.32,23.2,25.11,30.95,40.27,7.48,14.62,11.06,29.68,11.88,46.02.55,11.13.69,22.11.02,33.27-2.27,37.75-21.29,77.42-48,103.67-26.3,25.85-65.49,41.83-102.47,42.1-25.03.19-70.2-11.8-86.01-32.4,13.56-49.69,20.19-80.33,4.05-130.07-6.18.13-12.4-.2-18.92-.86l-18.99-1.93c2.46,11.35,5.22,22.72,6.88,34.73,4.36,31.47-4.89,69.14-18.56,97.22-11.24,23.08-27.72,42.6-48.69,57.06-14.13,9.74-28.97,15.68-45.25,21.05-26.02,2.7-47.96-1.87-66.29-21.54-10.75-11.54-18.58-24.59-21.88-40.14-5.55-19.4-6.69-38.49-4.38-58.82,2.99-36.52,17.56-70.83,41.42-98.43,6.19-7.16,27.49-28.23,36.63-28.31-3.51-9.09-27.63-41.73-36.81-44.03-3.72,5.68-28.3,14.59-33.93,17.1l-27.15,12.09-66.06,29.46c-1.53.68-3.36,2.9-3.64,4.02,1.27-.22,4.85-.92,6.05-1.45l71.52-31.54,40.88-18.16,11.41-5.04c3,13.85,2.17,26.13,1.36,39.58-.72,11.89-7.39,15.45-16.3,27.12-9.07,11.88-23.42,11.52-37.79,19.39l-.37,52.33-1.7,33.95c-1.02,20.43.04,40.19-1.59,60.45-1.19,14.8.66,23.72-2.05,35.75l-45.48,7.68,1.17-36.72,1.56-30.25,2.24-43.91c1.05-20.65,2.39-40.08,1.71-61.49-14.8,4.29-27.51,9.89-41.79,15.74l3.91-46.18c.47-5.52,1.82-10.87,2.98-15.79-7.8.51-13.07,7.69-11.68,15.9.59,3.49-.37,7.5-.77,11.01l-1.01,8.97-1.08,11.03-.24,9.76c-.09,3.77-1.27,7.13-.79,10.79,14.11,5.04,30.59-1.96,37.63,7.51l-.1,36.79-2.66,21.82c-.64,5.27,1.25,27.16-1.02,45.11l-.88,6.97-.13,37.96c0,.86.55,2.79,1.13,3.3,3.02,2.65,34.23-2.91,40.92-4.2,1.59-.31,4.04-.24,5.44-.16-1.94-4.82,34.93-5.13,38.35-5.01,3.64.12,7.63,3.2,10.67,5.14,14.7,9.38,30.7,13.83,48.34,15.94-.43,1.22-1.28,3.05-1.93,3.72,4.06,0,8.26-.26,12.79-.71l32.95-3.25c9.45-.93,18.48-1.14,27.21-.96,8.35.18,16.98.3,25.78-.28l13.07-.86,18.87-1.27c6.77-.46,13.01-2,20.14-1.55.26.02.55,0,.85-.02,0,0,0,0,0,0l24.17-1.81,40.84-4.35c1.18-.07,2.36-.16,3.53-.29l22.51-2.57,72.85-8.86,52.35-5.66,28.65-4.1c5.54-.79,12.36-.82,17.89-.01l45.09,6.6c10.55,1.54,21.19,5.48,31.94,4.61,17.42-1.4,34.4-5.12,51.49-9.1l20.38-4.74c9.23,9.64,11.24,18.78,19.66,28.76,21.31,4.62,41.7,7.8,63.35,11.64l85.54,15.16c6.53,1.16,12.49,1.62,19.09,1.8l.31-45.05.91-5.85c2.62-16.79.03-33.59.4-50.61l1.08-49.99.9-78.73,1.15-25.11.82-33.87,1.2-18.76.38-61.55c-7.96.71-15.11,1.1-22.94,1.12ZM1153.08,239.35l-.79,26.5-1.2,22.65-.9,36.08-.95,53.56-2.02,41.63-1.31,20.27-.5,60.94c-.06,7.04-.89,13.6-1.63,21.03l-39.86-6.34-67.25-11.4c-14.21-2.41-27.83-3.89-41.61-7.18-9.22-16.39-18.96-30.72-29.35-46.1l-59.5-88.1c-1.59-2.35-5.35-3.09-7.91-2.11l-.81,30.1-6.37,89.3-19.98-2.48-56.53-7.95-31.29-4.31c-.32-11.04-1.01-23.1,3.35-33.55,2.32-5.57,8.56-8.43,12.35-12.77,22.18-25.43,34.69-56.26,40.6-89.22,2.99-16.68,3.18-31.69-.07-48.32-4.21-21.59-11.4-41.45-24.99-59.06-3.06-3.97-5.28-9.05-5.05-14.08l.8-17.66,13.63-1.1,23.94-.98c18.63-.76,36.38-.55,54.94-2.27,4.12-.38,8.63.14,12.61,1.44l70.92,94.69c6.14,8.2,11.47,14.96,18.69,23.45,1.67-4.79,1.8-8.26,2.04-12.86l2.23-43.57,3.04-49.41.81-19.67,18.66-1.27c19.29,1.27,37.62-1.43,56.89-1.48l67.4-.17-3,61.77Z"/>
  <path class="st2" d="M492.35,529.96c-2.65-4.59-10.98-15.51-11.98-20.11-21.27-.9-51.44,4.28-72.94,4.92-10.85,10.32-29.8,33.82-43.29,38.18-87.31,63.25-164.67-47.01-176.84-126.91-17.94-65.79-3.05-132.62,31.24-190.37,56.62-101.49,147.91-69.48,198.59,16.62,5.45,4.83,13.68,30.01,20.35,28.71,8.26-22.68,108.2-132.64,83.99-143.01C440.05,57.41,299.53-15.51,192.32,52.44c-55.21,27.08-99.18,79.31-128.89,130.99-118.52,177.63-27.82,467.98,185.85,529.35,104.85,17.2,211-41.66,283.27-114.69,11.76-1.23-41.1-65.61-40.2-68.14Z"/>
</svg>
